<svg xmlns="http://www.w3.org/2000/svg" width="100%" height="100%" preserveAspectRatio="none" viewBox="0 0 100 100"><circle cx="58.23" cy="51.98" r="0.141" fill="#ffffff" opacity="0.28" style="animation:starBreathe 10.5s ease-in-out infinite"></circle><circle cx="68.94" cy="52.11" r="0.065" fill="#ffffff" opacity="0.09"></circle><circle cx="28.74" cy="99.7" r="0.121" fill="#ffffff" opacity="0.27"></circle><circle cx="25.63" cy="10.46" r="0.13999999999999999" fill="#ffffff" opacity="0.32"></circle><circle cx="45.12" cy="28.12" r="0.134" fill="#ffffff" opacity="0.09"></circle><circle cx="96.32" cy="80.5" r="0.062" fill="#ffffff" opacity="0.17" style="animation:starBreathe 9.9s ease-in-out infinite"></circle><circle cx="5.6" cy="26.9" r="0.1" fill="#ffffff" opacity="0.3"></circle><circle cx="51.66" cy="0.28" r="0.10800000000000001" fill="#ffffff" opacity="0.24"></circle><circle cx="70.2" cy="85.36" r="0.131" fill="#ffffff" opacity="0.14"></circle><circle cx="42.79" cy="91.78" r="0.064" fill="#ffffff" opacity="0.32"></circle><circle cx="1.76" cy="48.87" r="0.053000000000000005" fill="#ffffff" opacity="0.12" style="animation:starBreathe 11.6s ease-in-out infinite"></circle><circle cx="24.09" cy="32.55" r="0.11100000000000002" fill="#ffffff" opacity="0.29"></circle><circle cx="80.69" cy="60.79" r="0.11200000000000002" fill="#ffffff" opacity="0.1"></circle><circle cx="7.98" cy="90.01" r="0.148" fill="#ffffff" opacity="0.15"></circle><circle cx="22.16" cy="42.2" r="0.056999999999999995" fill="#ffffff" opacity="0.09"></circle><circle cx="35.57" cy="54.28" r="0.149" fill="#ffffff" opacity="0.2" style="animation:starBreathe 8.3s ease-in-out infinite"></circle><circle cx="35.49" cy="62.97" r="0.092" fill="#ffffff" opacity="0.09"></circle><circle cx="43.22" cy="82.96" r="0.067" fill="#ffffff" opacity="0.27"></circle><circle cx="76.39" cy="62.87" r="0.099" fill="#ffffff" opacity="0.2"></circle><circle cx="1.13" cy="32.93" r="0.10400000000000001" fill="#ffffff" opacity="0.16"></circle><circle cx="82.39" cy="59.58" r="0.06" fill="#ffffff" opacity="0.35" style="animation:starBreathe 9.5s ease-in-out infinite"></circle><circle cx="59.54" cy="12.46" r="0.06" fill="#ffffff" opacity="0.31"></circle><circle cx="46.52" cy="78.04" r="0.11399999999999999" fill="#ffffff" opacity="0.32"></circle><circle cx="12.81" cy="45.71" r="0.056999999999999995" fill="#ffffff" opacity="0.33"></circle><circle cx="70.81" cy="50.8" r="0.056999999999999995" fill="#ffffff" opacity="0.11"></circle><circle cx="44.82" cy="95.06" r="0.053000000000000005" fill="#ffffff" opacity="0.35" style="animation:starBreathe 11.6s ease-in-out infinite"></circle><circle cx="60.97" cy="62.11" r="0.10200000000000001" fill="#ffffff" opacity="0.21"></circle><circle cx="23.18" cy="21.94" r="0.059" fill="#ffffff" opacity="0.17"></circle><circle cx="63.44" cy="23.12" r="0.12" fill="#ffffff" opacity="0.16"></circle><circle cx="88.51" cy="25.72" r="0.05600000000000001" fill="#ffffff" opacity="0.23"></circle><circle cx="64.16" cy="24.14" r="0.126" fill="#ffffff" opacity="0.34" style="animation:starBreathe 7s ease-in-out infinite"></circle><circle cx="3.18" cy="24.32" r="0.068" fill="#ffffff" opacity="0.21"></circle><circle cx="76.96" cy="26.19" r="0.05600000000000001" fill="#ffffff" opacity="0.14"></circle><circle cx="4.43" cy="81.81" r="0.051000000000000004" fill="#ffffff" opacity="0.32"></circle><circle cx="70.2" cy="19.36" r="0.128" fill="#ffffff" opacity="0.17"></circle><circle cx="54.97" cy="42.67" r="0.119" fill="#ffffff" opacity="0.28" style="animation:starBreathe 10s ease-in-out infinite"></circle></svg>